<?xml version="1.0" encoding="utf-8"?>
<!-- Generator: Adobe Illustrator 19.2.1, SVG Export Plug-In . SVG Version: 6.00 Build 0)  -->
<svg version="1.2" baseProfile="tiny" id="Layer_1" xmlns="http://www.w3.org/2000/svg" xmlns:xlink="http://www.w3.org/1999/xlink"
	 x="0px" y="0px" viewBox="0 0 32 32" xml:space="preserve">
<g>
	<polygon fill="#BCBBBB" points="24,29.1 24,20.6 26.8,20.6 26.8,32 1.2,32 1.2,20.6 4,20.6 4,29.1 	"/>
	<path fill="#F48023" d="M7.2,19.8l14,2.9l0.6-2.8L7.8,17L7.2,19.8z M9,13.1l12.9,6l1.2-2.6l-12.9-6L9,13.1z M12.6,6.8l11,9.1
		l1.8-2.2l-11-9.1L12.6,6.8z M19.7,0l-2.3,1.7l8.5,11.5l2.3-1.7L19.7,0z M6.9,26.3l14.3,0v-2.9l-14.3,0V26.3z"/>
</g>
</svg>
