<?xml version="1.0" encoding="utf-8"?>
<!-- Generator: Adobe Illustrator 19.2.1, SVG Export Plug-In . SVG Version: 6.00 Build 0)  -->
<svg version="1.2" baseProfile="tiny" id="Layer_1" xmlns="http://www.w3.org/2000/svg" xmlns:xlink="http://www.w3.org/1999/xlink"
	 x="0px" y="0px" viewBox="0 0 64 32" xml:space="preserve">
<path fill="#CB3837" d="M0,3.5h64v21.4H32v3.6H17.8v-3.6H0V3.5z M3.6,21.3h7.2V10.7h3.6v10.6H18V7.1H3.6V21.3z M21.4,7.1v17.8h7.2
	v-3.6h7.2V7.1H21.4z M28.4,10.5H32v7.2h-3.6V10.5z M39.2,7.1v14.2h7.2V10.7H50v10.6h3.6V10.7h3.6v10.6h3.6V7.1H39.2z"/>
<polygon fill="#FFFFFF" points="3.6,21.3 10.6,21.3 10.6,10.5 14.2,10.5 14.2,21.3 17.8,21.3 17.8,7.1 3.6,7.1 "/>
<path fill="#FFFFFF" d="M21.4,7.1v17.8h7.2v-3.6h7.2V7.1H21.4z M32,17.7h-3.6v-7.2H32V17.7z"/>
<polygon fill="#FFFFFF" points="39.2,7.1 39.2,21.3 46.2,21.3 46.2,10.5 49.8,10.5 49.8,21.3 53.4,21.3 53.4,10.5 56.8,10.5 
	56.8,21.3 60.4,21.3 60.4,7.1 "/>
</svg>
